<?xml version="1.0" standalone="no"?><svg xmlns="http://www.w3.org/2000/svg" viewBox="0 0 1440 320"><path fill="#791CF5" fill-opacity="0.8" d="M0,32L34.3,37.3C68.6,43,137,53,206,58.7C274.3,64,343,64,411,101.3C480,139,549,213,617,224C685.7,235,754,181,823,186.7C891.4,192,960,256,1029,288C1097.1,320,1166,320,1234,282.7C1302.9,245,1371,171,1406,133.3L1440,96L1440,320L1405.7,320C1371.4,320,1303,320,1234,320C1165.7,320,1097,320,1029,320C960,320,891,320,823,320C754.3,320,686,320,617,320C548.6,320,480,320,411,320C342.9,320,274,320,206,320C137.1,320,69,320,34,320L0,320Z"></path></svg>